Coordinates
version=1
nRows=8
nColumns=63
inDegrees=yes

Units are S.I. units (second, meters, Newtons, ...)
If the header above contains a line with 'inDegrees', this indicates whether rotational values are in degrees (yes) or radians (no).

endheader
time	pelvis_tilt	pelvis_list	pelvis_rotation	pelvis_tx	pelvis_ty	pelvis_tz	hip_flexion_r	hip_adduction_r	hip_rotation_r	knee_angle_r	knee_angle_r_beta	ankle_angle_r	subtalar_angle_r	mtp_angle_r	hip_flexion_l	hip_adduction_l	hip_rotation_l	knee_angle_l	knee_angle_l_beta	ankle_angle_l	subtalar_angle_l	mtp_angle_l	L5_S1_Flex_Ext	L5_S1_Lat_Bending	L5_S1_axial_rotation	L4_L5_Flex_Ext	L4_L5_Lat_Bending	L4_L5_axial_rotation	L3_L4_Flex_Ext	L3_L4_Lat_Bending	L3_L4_axial_rotation	L2_L3_Flex_Ext	L2_L3_Lat_Bending	L2_L3_axial_rotation	L1_L2_Flex_Ext	L1_L2_Lat_Bending	L1_L2_axial_rotation	L1_T12_Flex_Ext	L1_T12_Lat_Bending	L1_T12_axial_rotation	Abs_r3	Abs_r2	Abs_r1	Abs_t1	Abs_t2	neck_flexion	neck_bending	neck_rotation	arm_flex_r	arm_add_r	arm_rot_r	elbow_flex_r	pro_sup_r	wrist_flex_r	wrist_dev_r	arm_flex_l	arm_add_l	arm_rot_l	elbow_flex_l	pro_sup_l	wrist_flex_l	wrist_dev_l
      1.12280702	     -7.77785962	     -0.52111309	     88.08288605	      0.12227629	      0.96713218	      0.31123531	      5.69539446	     -6.33918603	    -12.18325069	     21.15344465	      0.36919726	     12.34421100	    -11.22422495	      0.00000000	      1.65006111	      6.78243168	      0.60842671	      9.21900365	      0.16090197	      7.13016610	    -10.79107506	      0.00000000	     -0.32212310	     -0.98661358	     -0.66802684	     -0.59821480	     -1.31219606	     -0.70977852	     -0.52921604	     -2.39885226	     -0.70977852	     -0.36815449	     -2.39885226	     -0.58452348	     -0.29912351	     -2.01190242	     -0.54277181	     -0.18406114	     -1.52826444	     -0.50102013	     -2.30089307	    -11.16077016	     -3.71536487	      0.00000000	      0.00000000	    -13.92988738	      6.81392857	     -0.80377522	     37.67398792	    -17.87761748	      5.19773364	    147.59118446	     88.39376596	      7.61280453	     27.70648076	     48.63718025	    -21.09856196	     12.65559946	    148.59917833	     89.06938266	     13.09765538	     19.12174654
      1.14035088	     -7.70661341	     -0.69247876	     87.74428441	      0.12340569	      0.96793274	      0.31193188	      5.51406864	     -6.16305849	    -12.54348399	     20.23411766	      0.35315197	     12.12916430	    -10.63119005	      0.00000000	      1.81092241	      6.62402117	      0.08003361	      9.02766404	      0.15756246	      6.18096140	    -11.04978959	      0.00000000	     -0.30596356	     -0.98125943	     -0.60943852	     -0.56820493	     -1.30507504	     -0.64752842	     -0.50266754	     -2.38583418	     -0.64752842	     -0.34968576	     -2.38583418	     -0.53325870	     -0.28411777	     -2.00098423	     -0.49516880	     -0.17482758	     -1.51997086	     -0.45707889	     -2.18546714	    -11.10020292	     -3.38951420	      0.00000000	      0.00000000	    -13.27437358	      6.98371243	     -0.54251545	     37.90671080	    -17.82542400	      5.00016258	    147.34833893	     88.32603352	      7.51883254	     27.68889014	     49.19834139	    -21.11124745	     12.98408114	    148.25213502	     89.02866247	     12.84429686	     19.31243662
      1.15789474	     -7.55891176	     -0.53766989	     86.89102051	      0.12511066	      0.96922288	      0.31199434	      4.88787180	     -6.04973168	    -13.51810741	     19.13095038	      0.33389807	     12.49741395	     -7.95499146	      0.00000000	      1.20289899	      6.45368987	     -0.46086444	      8.09629794	      0.14130706	      5.21655328	    -11.40929446	      0.00000000	     -0.32580147	     -0.97431066	     -0.41999701	     -0.60504590	     -1.29583318	     -0.44624682	     -0.53525923	     -2.36893894	     -0.44624682	     -0.37235850	     -2.36893894	     -0.36749738	     -0.30253924	     -1.98681430	     -0.34124757	     -0.18616296	     -1.50920721	     -0.31499776	     -2.32716729	    -11.02159704	     -2.33589736	      0.00000000	      0.00000000	    -12.96628573	      7.44263625	     -0.71682415	     37.97074108	    -17.98157387	      4.45765944	    146.96803263	     88.35198875	      7.55471807	     27.36925661	     49.82400363	    -20.95312881	     13.79195971	    147.93561166	     88.98722535	     11.74668143	     20.04931817
      1.17543860	     -7.46094312	     -0.75430569	     86.61480826	      0.12613894	      0.96972624	      0.31281056	      4.88910994	     -5.82674585	    -13.77463900	     18.53753620	      0.32354104	     12.56508446	     -7.54275798	      0.00000000	      1.37581738	      6.28736415	     -0.59742316	      7.82065942	      0.13649626	      4.79221173	    -11.31053862	      0.00000000	     -0.28919448	     -0.96666069	     -0.38633537	     -0.53706307	     -1.28565872	     -0.41048133	     -0.47511761	     -2.35033880	     -0.41048133	     -0.33052037	     -2.35033880	     -0.33804345	     -0.26854599	     -1.97121448	     -0.31389749	     -0.16524573	     -1.49735741	     -0.28975152	     -2.06568725	    -10.93505904	     -2.14868141	      0.00000000	      0.00000000	    -12.82072383	      7.39295007	     -0.81858818	     38.36198270	    -17.87301434	      4.41054117	    146.33213512	     88.43679319	      7.57502581	     27.34698798	     50.42249903	    -21.19185368	     13.98045375	    147.68685966	     88.97174503	     11.72521707	     20.18805682
      1.19298246	     -7.23917246	     -0.50832921	     85.96564718	      0.12781657	      0.97112850	      0.31193979	      3.93784222	     -5.54730398	    -14.73279814	     17.23153910	      0.30074709	     12.72065917	     -5.06856885	      0.00000000	      0.53162075	      6.04269040	     -1.20959871	      6.72790420	      0.11742408	      4.41402137	    -10.68720088	      0.00000000	     -0.27789962	     -0.94615094	     -0.30226795	     -0.51608739	     -1.25838075	     -0.32115970	     -0.45656129	     -2.30047139	     -0.32115970	     -0.31761148	     -2.30047139	     -0.26448446	     -0.25805759	     -1.92939099	     -0.24559271	     -0.15879184	     -1.46558780	     -0.22670096	     -1.98500921	    -10.70304863	     -1.68112367	      0.00000000	      0.00000000	    -13.40161581	      6.91482001	     -1.15130225	     38.47947954	    -17.75019111	      4.36670362	    145.58302183	     88.54846957	      8.08687520	     26.91231394	     50.55798578	    -21.68194599	     14.01366972	    147.66126855	     88.94896385	     11.59616153	     20.87186257
      1.21052632	     -6.95659890	     -0.45170378	     86.07264924	      0.12775989	      0.97212929	      0.31128522	      3.12992464	     -5.62492471	    -18.60666446	     16.32320785	      0.28489372	     13.68840741	      0.59776723	      0.00000000	      0.24471862	      5.67260088	     -2.33580021	      6.30375624	      0.11002130	      5.17283914	     -7.96736493	      0.00000000	     -0.22898072	     -0.90371030	     -0.43942436	     -0.42524010	     -1.20193470	     -0.46688839	     -0.37619243	     -2.19728123	     -0.46688839	     -0.26170207	     -2.19728123	     -0.38449632	     -0.21263150	     -1.84284605	     -0.35703230	     -0.13083959	     -1.39984726	     -0.32956827	     -1.63558642	    -10.22295169	     -2.44394649	      0.00000000	      0.00000000	    -14.43986052	      6.22625938	     -1.05002215	     38.94608969	    -17.41497647	      4.86285330	    144.63876216	     88.61581634	      8.96629302	     26.69255830	     50.26194825	    -22.33733790	     13.26414961	    147.87053466	     88.92270430	     12.35267973	     21.65922912
      1.22807018	     -6.79438825	     -0.33105663	     85.78419692	      0.12876336	      0.97294193	      0.31020511	      2.47438356	     -5.29494628	    -18.78529185	     15.43896271	      0.26946073	     13.61676645	      1.29529947	      0.00000000	     -0.25057488	      5.49898613	     -2.36903778	      5.60900770	      0.09789565	      5.24741792	     -7.43205009	      0.00000000	     -0.16885669	     -0.88604758	     -0.52222443	     -0.31358376	     -1.17844328	     -0.55486346	     -0.27741465	     -2.15433608	     -0.55486346	     -0.19298631	     -2.15433608	     -0.45694638	     -0.15680032	     -1.80682822	     -0.42430735	     -0.09648471	     -1.37248770	     -0.39166832	     -1.20612645	    -10.02314740	     -2.90445561	      0.00000000	      0.00000000	    -15.69013841	      5.36190950	     -1.53154522	     39.01982292	    -16.90672877	      5.37641257	    143.99660277	     88.62643188	      9.19360808	     26.66507542	     49.93639082	    -23.18533971	     12.68573647	    148.07308621	     88.89662460	     12.46878447	     21.68065046
      1.24561404	     -6.41471565	     -0.11526069	     85.91826315	      0.12842873	      0.97384858	      0.30872755	      1.58757104	     -5.01510996	    -20.87316191	     14.66016215	      0.25586810	     13.73567147	      4.12790466	      0.00000000	     -0.79471586	      5.10446471	     -2.72555700	      5.10453784	      0.08909099	      5.82434325	     -6.03833822	      0.00000000	     -0.12845596	     -0.81517443	     -0.77618305	     -0.23855555	     -1.08418199	     -0.82469449	     -0.21104029	     -1.98201511	     -0.82469449	     -0.14681231	     -1.98201511	     -0.67916017	     -0.11928420	     -1.66230370	     -0.63064873	     -0.07339973	     -1.26270519	     -0.58213729	     -0.91754804	     -9.22141621	     -4.31689726	      0.00000000	      0.00000000	    -16.85558314	      4.07674170	     -0.57338300	     39.60527673	    -16.21084944	      6.53908413	    143.13365419	     88.60707385	     10.07090684	     26.67586713	     48.76431272	    -24.20941850	     10.98894328	    148.56861334	     88.87190885	     12.98175015	     20.96018448
